<svg cache-id="4dccaa4c12e74eae91462bda00092e82" id="ee57NrDG1XY1" xmlns="http://www.w3.org/2000/svg" xmlns:xlink="http://www.w3.org/1999/xlink" viewBox="0 0 1920 1080" shape-rendering="geometricPrecision" text-rendering="geometricPrecision">
<style><![CDATA[
#ee57NrDG1XY3_to {animation: ee57NrDG1XY3_to__to 5000ms linear 1 normal forwards}@keyframes ee57NrDG1XY3_to__to { 0% {transform: translate(960px,525.553566px)} 28% {transform: translate(960px,525.553566px)} 100% {transform: translate(960px,525.553566px)}} #ee57NrDG1XY3 {animation: ee57NrDG1XY3_c_o 5000ms linear 1 normal forwards}@keyframes ee57NrDG1XY3_c_o { 0% {opacity: 1} 28% {opacity: 1} 100% {opacity: 0.25}} #ee57NrDG1XY5 {animation: ee57NrDG1XY5_c_o 5000ms linear 1 normal forwards}@keyframes ee57NrDG1XY5_c_o { 0% {opacity: 0} 28% {opacity: 1} 100% {opacity: 1}} #ee57NrDG1XY8_to {animation: ee57NrDG1XY8_to__to 5000ms linear 1 normal forwards}@keyframes ee57NrDG1XY8_to__to { 0% {transform: translate(365.866028px,519.181563px)} 4% {transform: translate(365.866028px,516.977557px)} 12% {transform: translate(365.866028px,514.773551px)} 20% {transform: translate(365.866028px,521.385569px)} 28% {transform: translate(365.866028px,508.161533px)} 40% {transform: translate(365.866028px,530.201593px)} 48% {transform: translate(365.866028px,511.467542px)} 100% {transform: translate(365.866028px,511.467542px)}} #ee57NrDG1XY29_tr {animation: ee57NrDG1XY29_tr__tr 5000ms linear 1 normal forwards}@keyframes ee57NrDG1XY29_tr__tr { 0% {transform: translate(347.459137px,528.379181px) rotate(0deg)} 40% {transform: translate(347.459137px,528.379181px) rotate(0deg)} 44% {transform: translate(347.459137px,528.379181px) rotate(-4.900691deg)} 72.6% {transform: translate(347.459137px,528.379181px) rotate(0deg)} 100% {transform: translate(347.459137px,528.379181px) rotate(0deg)}} #ee57NrDG1XY29 {animation: ee57NrDG1XY29_c_o 5000ms linear 1 normal forwards}@keyframes ee57NrDG1XY29_c_o { 0% {opacity: 0} 40% {opacity: 0} 60% {opacity: 1} 100% {opacity: 1}} #ee57NrDG1XY40_tr {animation: ee57NrDG1XY40_tr__tr 5000ms linear 1 normal forwards}@keyframes ee57NrDG1XY40_tr__tr { 0% {transform: translate(382.08049px,528.098755px) rotate(0deg)} 40% {transform: translate(382.08049px,528.098755px) rotate(0deg)} 44% {transform: translate(382.08049px,528.098755px) rotate(8.086918deg)} 72% {transform: translate(382.08049px,528.098755px) rotate(0deg)} 100% {transform: translate(382.08049px,528.098755px) rotate(0deg)}} #ee57NrDG1XY40 {animation: ee57NrDG1XY40_c_o 5000ms linear 1 normal forwards}@keyframes ee57NrDG1XY40_c_o { 0% {opacity: 0} 40% {opacity: 0} 60% {opacity: 1} 100% {opacity: 1}} #ee57NrDG1XY55 {animation: ee57NrDG1XY55_c_o 5000ms linear 1 normal forwards}@keyframes ee57NrDG1XY55_c_o { 0% {opacity: 0} 60% {opacity: 0} 80% {opacity: 1} 100% {opacity: 1}}
]]></style>
<g id="ee57NrDG1XY3_to" transform="translate(960,525.553566)"><g id="ee57NrDG1XY3" transform="scale(0.674791,0.674791) translate(-491.578722,-485.314346)" clip-rule="evenodd"><g transform="matrix(1.34477 0 0 1.34477-3.43348-293.397)" clip-rule="evenodd"><g id="ee57NrDG1XY5" opacity="0"><g transform="translate(-112 181)" clip-rule="evenodd"><path d="M481.31,103.41c2.88-.98,5.79.89,8.7.66c8.74,1.72,17.95-.28,26.33,3.48c12.87,4.19,23.81,12.41,33.95,21.16c10.74,12.06,19.91,26.75,20.66,43.3-.01,5.33,1.65,10.57.78,15.92-1.7,13.4-.02,27.66-5.39,40.38-1.28,3.54-5.05,5.13-8.21,6.6-4.76-8.84,2.91-22.76-6.95-29.06-.99,9.39-3.3,18.67-3.23,28.16-1.23,3.35.55,6.26,2.05,8.96c3.24,4.11,9.11,4.08,13.24,6.79c5.2,3.26,2.24,10.72-.91,14.54-7.03,9.91-20.01,11.99-30.33,16.72-9.52,3.89-11.86,15.63-21.01,19.96-10.6,5.8-23.3,5.04-34.99,5.05-12.68.21-26.73-1.56-36.28-10.75-3.31-5.54-6.97-10.87-12.03-14.96-9.52-4.19-19.63-7.08-28.67-12.36-6.55-3.85-10.8-11.14-8.81-18.73c3.99-5.2,11.87-4.81,15.5-10.49c3.4-12.43-1.3-25.22,1.15-37.73-1.24-9.88,4.31-18.11,8.79-26.3c1.67-10.25,7.28-19.06,10.4-28.77-9.13,1.81-13.03,11.22-16.15,19.02-3.33,7.86-8.33,15.04-10.48,23.38-1.1,14.17.06,28.42-.52,42.61-.32,2.35-2.85,5.86-3.9.05-6.72-9.11-7-20.92-8.35-31.71-2.7-20.29,1.96-41.88,14.11-58.52c9.08-10.63,17.94-22.06,31.23-27.78c15-8.62,32.94-6.52,49.32-9.58m-40.97,93.02c-10.85,2.05-19.41,11.32-20.88,22.21-1.55,8.97-2.77,19.28,2.71,27.19c4.19,4.61,10.72,4.93,16.49,3.74c9.9-2.53,18.81-9.03,24.26-17.63c5.88-7.47,6.7-18.99.86-26.72-5.56-6.63-14.79-10.64-23.44-8.79m72,.05c-10.56,2.19-21.59,9.06-23.35,20.52.65,9.97,6.4,18.83,13.19,25.82c4.21,4.56,9.89,7.88,16.11,8.68c9.91-.25,19.53-7.61,21.44-17.48-2.36-8.19-.9-17.61-5.8-24.95-3.86-8.01-12.63-13.59-21.59-12.59m-36.11,39.71c-3.6,3.05-5.11,7.74-7.18,11.83-3.41,9.22-6.59,19.05-6.04,29.01c3.15.29,5.97-1.3,8.89-2.2c6.19-2.54,12.76,1.38,19.09,1.15-1.68-6.92-1.75-14.16-4.05-20.97-2.25-5.76-2.07-12.32-5.25-17.7-1.61-1.06-3.55-1.78-5.46-1.12Z" clip-rule="evenodd" stroke-linejoin="round" stroke-miterlimit="2"/></g><g id="ee57NrDG1XY8_to" transform="translate(365.866028,519.181563)"><g transform="translate(-365.866028,-518.07956)"><g transform="translate(-112 181)" clip-rule="evenodd"><path d="M417.22,294.14c9.39,2.33,16.29,11.91,17.24,21.51.89,7.07-.39,14.93,3.53,21.36c6.08,12.02,20.31,16.84,33.01,17.12c12.43,2.07,26.18,1.05,36.82-6.33c11.24-11.1,8.08-28.57,15.23-41.77c2.87-6.43,10.57-8.21,16.86-9.07-.69,7.31-1.41,14.58-3.32,21.7-2.33,8.58-.02,17.85-3.93,26.06-3.86,8.03-9.42,15.09-14.87,22.07-5.74,6.04-12.85,12.6-21.78,12.14-15.37-.27-31.19,3.57-46.1-1.75-12.44-4.05-15.8-18.17-24.7-26.39-5.8-5.24-8.23-13.11-8.14-20.78.43-11.65-2.13-23.18-.92-34.82.26-.26.8-.79,1.07-1.05Z" clip-rule="evenodd" stroke-linejoin="round" stroke-miterlimit="2"/></g><g transform="translate(-112 181)" clip-rule="evenodd"><path d="M448.96,336.97c4.76-.43,8.9,4.37,8.05,9.03-6.68,2.45-7.53-4.7-8.05-9.03Z" clip-rule="evenodd" stroke-linejoin="round" stroke-miterlimit="2"/></g><g transform="translate(-112 181)" clip-rule="evenodd"><path d="M459.97,338c1.91,1.18,6.35-1.49,7.92,1.23c1.15,3.53-.51,8.21-3.85,9.83-3.18-2.5-3.86-7.19-4.07-11.06Z" clip-rule="evenodd" stroke-linejoin="round" stroke-miterlimit="2"/></g><g transform="translate(-112 181)" clip-rule="evenodd"><path d="M492.24,338.19c4.3-1.3,7.54,4.52,4.81,7.84-1.23,1.55-2.53,4.2-4.84,3.87-1.27-3.62-4.19-9.12.03-11.71Z" clip-rule="evenodd" stroke-linejoin="round" stroke-miterlimit="2"/></g><g transform="translate(-112 181)" clip-rule="evenodd"><path d="M474.17,339.09c2.48-.62,4.85.58,6.75,2.09c1.05,3.78-1.89,10.49-6.68,8.63-3.83-2.34-2.66-7.81-.07-10.72Z" clip-rule="evenodd" stroke-linejoin="round" stroke-miterlimit="2"/></g></g></g><g transform="translate(-112 181)" clip-rule="evenodd"><path d="M451.27,308.21l4.54-.15c.94,4.19,2.23,8.86,0,12.83-7,1.89-10.73-9.54-4.54-12.68Z" clip-rule="evenodd" stroke-linejoin="round" stroke-miterlimit="2"/></g><g transform="translate(-112 181)" clip-rule="evenodd"><path d="M498.16,308.32c1.55.29,3.09.6,4.64.92c1.43,4.18.87,9.2-1.97,12.68-5.49-.31-3.46-9.17-3.72-12.73.26-.21.79-.65,1.05-.87Z" clip-rule="evenodd" stroke-linejoin="round" stroke-miterlimit="2"/></g><g transform="translate(-112 181)" clip-rule="evenodd"><path d="M476.23,309.44c2.75.11,6.24,3.12,3.78,6.56c1.89,3.31-.43,5.09-2.27,6.82-5.25,2.95-6.09-2.64-6.73-5.82.76-3.04,1.18-7.64,5.22-7.56Z" clip-rule="evenodd" stroke-linejoin="round" stroke-miterlimit="2"/></g><g transform="translate(-112 181)" clip-rule="evenodd"><path d="M462.21,310.09c4.94-1.59,7.76,4.99,6.81,8.93.46,4.41-5.04,2.91-8.01,2.97-.42-4.04-.07-8.07,1.2-11.9Z" clip-rule="evenodd" stroke-linejoin="round" stroke-miterlimit="2"/></g><g transform="translate(-112 181)" clip-rule="evenodd"><path d="M485.13,310.03c7.21-3.11,6.51,6.3,6.9,9.97.44,4.43-5.05,2.93-8.03,2.99-.46-4.39.42-8.68,1.13-12.96Z" clip-rule="evenodd" stroke-linejoin="round" stroke-miterlimit="2"/></g></g><g id="ee57NrDG1XY29_tr" transform="translate(347.459137,528.379181) rotate(0)"><g id="ee57NrDG1XY29" transform="translate(-347.459137,-528.379181)" opacity="0"><g transform="translate(-112 181)" clip-rule="evenodd"><path d="M184.15,157.89c9.26,11.1,14.76,25.42,25.09,35.87c13.86,14.49,26.81,29.87,40,45c9.99,12.58,23.03,22.4,33.02,34.99c6.99,6.99,13.94,14.04,21.01,20.95c22.3,17.37,44.54,34.81,66.8,52.24c21.75,18.22,46.54,32.25,70.27,47.67c8.45,4.01,17.37,7.01,25.67,11.38c23.57,12.48,48.71,21.66,74.03,29.84c18.75,5.05,37.36,10.69,56.04,16.04c6.44,2.04,13.81.67,19.74,4.4-.02.35-.05,1.07-.07,1.43-7.03,4.26-14.64,7.78-22.78,9.24-17.54,1.72-33.96-5.98-49.97-11.94-43.01-16.52-85.08-35.58-125.66-57.39-12.17-7.74-24.62-15.1-36.05-23.93-6.57-5.9-14.04-12.74-23.42-12.67c24.98,25.54,56.12,44.34,87.97,60.21c39.03,18.61,79.32,34.41,119.5,50.33c8.18,4.06,17.77,4.53,25.44,9.67c2.87,2.14,4.17,5.49,5.15,8.82-4.6.35-9.17-.21-13.6-1.44-23.55-5.31-47.51-9.39-70.25-17.72-21.47-7.52-42.28-16.72-63.04-25.99-38.34-17.02-73.66-40.08-108.12-63.82-16.89-13.35-32.01-28.72-48.87-42.11-27.21-24.11-49.39-53.2-70.09-82.94-12.85-19.36-24.94-39.57-32.41-61.68-3.49-7.63-5.08-16-5.68-24.33-1.2-3.99-.17-8.09.28-12.12Z" clip-rule="evenodd" stroke-linejoin="round" stroke-miterlimit="2"/></g><g transform="translate(-112 181)" clip-rule="evenodd"><path d="M655.31,415.31c6.48-1.11,14.81-.36,18.71,5.68c1.25,2.63,4.71,4.74,4.87,7.79-5.32,1.56-10.24,4.06-14.54,7.6-12.61,13.5-18.31,32.26-32.63,44.33-1.98,1.24-2.63,3.54-3.29,5.61-.8,7.92-2.02,15.89-4.81,23.37-6.43,13.54-20.61,21.52-34.54,25.42-7.26,1.08-15.05,3.41-22.05-.12-4.36-1.86-9.63-3.97-10.95-9.06-2.03-3.64.28-8.48,4.22-9.64c7.28-.84,13.45,4.39,20.7,3.71c11.32-2.37,22.4-10.21,25.03-21.98c3.55-8.73-5-15.79-5.94-23.81c10.27-3.21,20.49-8.26,26.92-17.2c6.96-7.29,8.17-17.65,12.57-26.35c2.69-7.19,8.99-12.18,15.73-15.35Z" clip-rule="evenodd" stroke-linejoin="round" stroke-miterlimit="2"/></g><g transform="translate(-112 181)" clip-rule="evenodd"><path d="M712.35,463.53c9.5-2.01,19.66,4.41,22.4,13.59c3.7,11.44-4.98,26.52-17.76,25.89-8.06,2.09-16.03-6.43-13.27-14.12c1.22-6.34,5.39-11.67,7.2-17.72-2.85-2.25-6.33-3.6-9.07-5.94c3.52-.49,6.97-1.15,10.5-1.7Z" clip-rule="evenodd" stroke-linejoin="round" stroke-miterlimit="2"/></g><g transform="translate(-112 181)" clip-rule="evenodd"><path d="M674.35,470.59c7.14-.97,14.4-.7,21.61-.52c3.17,1.02,7.12,3.64,4.96,7.88-1.31,4.28-3.52,8.22-6.17,11.83-3.97,5.66-11.8,4.06-17.75,4.13-11.91-2.52-24.42,1.34-36.02-2.96.29-7.6,5.86-13.81,11.29-18.65c7.2-2,14.75-.71,22.08-1.71Z" clip-rule="evenodd" stroke-linejoin="round" stroke-miterlimit="2"/></g><g transform="translate(-112 181)" clip-rule="evenodd"><path d="M693.22,500.13c2.94-.97,4.55,2.64,6.55,4.1c2.22,2.41,5.35,3.48,8.19,4.92c1.02,5.61-6.82,6.12-9.74,2.61-2.76-2.69-8.9-7.56-5-11.63Z" clip-rule="evenodd" stroke-linejoin="round" stroke-miterlimit="2"/></g></g></g><g id="ee57NrDG1XY40_tr" transform="translate(382.08049,528.098755) rotate(0)"><g id="ee57NrDG1XY40" transform="translate(-382.08049,-528.098755)" opacity="0"><g transform="translate(-112 181)" clip-rule="evenodd"><path d="M775.39,164.48c.87-1.37.99,1.89,1.39,2.51-1.51,15.05-7.15,29.13-12.78,43.01-3.97,11.54-11.98,20.98-17,32-14.64,29.89-34.03,57.9-59.69,79.36-15.12,14.93-30.8,29.23-47.25,42.7-12.87,11.52-28.26,19.59-42.01,29.98-17.93,11.67-35.9,23.66-55.4,32.57-8.98.34-17.12-5.29-25.63-7.72c10.98-7.83,23.55-13.6,35.04-20.8c11.2-7.19,23.58-12.58,33.85-21.19c1.69-2.92,4.68-5.42,5.16-8.9-9.99.37-17.88,8.28-26.12,12.96-16.09,9.33-32.45,18.22-48.58,27.48-3.51,2.49-7.72,3.64-11.67,5.23-2.08.96-3.86-1.01-5.71-1.64-4-2.21-9.38-2.65-11.98-6.76c19.5-8.61,38.64-18.02,57.66-27.65c48.66-30.54,94.61-65.37,138.12-102.83c31.56-36.1,63.78-71.88,92.6-110.31Z" clip-rule="evenodd" stroke-linejoin="round" stroke-miterlimit="2"/></g><g transform="translate(-112 181)" clip-rule="evenodd"><path d="M283.31,403.32c6.07-.98,13.07-1.11,17.52,3.85c6.3,9.26,5.32,21.37,11.21,30.8c7.69,13,20.89,22.12,34.88,27.25-.65,6.44-3.67,12.44-4.89,18.78c1.89,10.94,8.89,20.93,18.63,26.35c8.7,3.68,17.52-3.19,26.1-.07c2.25,2.8,4.28,7.17,2.05,10.57-4.51,8.53-16.21,9.57-24.77,9.11-18.33-4.05-36.27-16.95-41.53-35.69-3.25-6.09.36-13.58-3.21-19.57-2.97-4.57-6.84-8.48-10.93-12.04-7.37-8.36-11.2-18.96-16.37-28.67-4.25-8.65-12.84-14.46-21.9-17.18c2.48-6.08,7-11.15,13.21-13.49Z" clip-rule="evenodd" stroke-linejoin="round" stroke-miterlimit="2"/></g><g transform="translate(-112 181)" clip-rule="evenodd"><path d="M405.31,431.35c1.06-.48,2.07-.38,3.03.28c5.88,3.44,11.47,7.38,17.46,10.67-1.23,3.53-7.17,1.93-9.84,3.72-7.82,3.25-16.13,4.75-23.98,7.9-9.46,1.48-18.35,5.69-27.97,6.19-8.39,2.46-16.8-2.35-23.96-6.18-2.51-1.84-6.74-3.23-7.06-6.74c24.2-4.79,48.61-8.86,72.32-15.84Z" clip-rule="evenodd" stroke-linejoin="round" stroke-miterlimit="2"/></g><g transform="translate(-112 181)" clip-rule="evenodd"><path d="M438.3,448.38c7.87,2.51,15.45,7.21,23.57,9.83.01.39.03,1.16.05,1.55-5.35,1.17-10.36,3.42-15.24,5.83-31.87,7.8-63.71,17.62-96.77,18.37c1.33-4.12,3.09-8.86,7.28-10.78c7.22-4.52,15.72-6.13,23.88-8.16c19.15-5.29,38.3-10.67,57.23-16.64Z" clip-rule="evenodd" stroke-linejoin="round" stroke-miterlimit="2"/></g><g transform="translate(-112 181)" clip-rule="evenodd"><path d="M227.34,450.51c5.53-.97,11.86-.61,16.65,2.62-1.82,2.8-5.68,4.95-4.97,8.85c1.85,6.96,7.63,15.08,3.2,22.25-3.19,6.59-12,7.06-18.16,4.69-7.48-2.65-12.1-10.11-12.38-17.85-1.86-9.69,5.15-20.76,15.66-20.56Z" clip-rule="evenodd" stroke-linejoin="round" stroke-miterlimit="2"/></g><g transform="translate(-112 181)" clip-rule="evenodd"><path d="M270.35,457.59c7.99-1.63,16.48-.51,23.68,3.35c7.43,3.57,13.31,11.35,11.99,20.02-12.05-.43-24,1.2-36.02,1.12-4.87,1.34-10.77.99-14.85-2.25-3.64-6.02-6.35-12.55-8.81-19.12-1.58-2.71,4.44-4.39,5.65-2.7c6.1-.3,12.29.53,18.36-.42Z" clip-rule="evenodd" stroke-linejoin="round" stroke-miterlimit="2"/></g><g transform="translate(-112 181)" clip-rule="evenodd"><path d="M253.27,487.32c.43-.1,1.29-.3,1.72-.4.46,8.83-9.68,13.27-17.04,15.13c2.23-6.92,9.07-11.52,15.32-14.73Z" clip-rule="evenodd" stroke-linejoin="round" stroke-miterlimit="2"/></g></g></g></g><g id="ee57NrDG1XY55" transform="matrix(1.56501 0 0 1.56501-180.982-456.017)" opacity="0" clip-rule="evenodd"><g transform="matrix(144 0 0 144 123.805 854.922)" clip-rule="evenodd"><path d="M0.771,-0.407c0,.029-.003.055-.01.077-.007.023-.017.043-.029.061-.013.017-.027.032-.043.044-.015.013-.032.023-.05.031-.017.007-.035.013-.052.017-.018.003-.035.005-.05.005h-.287v-.127h.287c.016-.001.031-.004.044-.01.013-.005.024-.012.034-.022.009-.009.017-.02.022-.033.005-.012.008-.027.008-.043v-.058c-.002-.016-.006-.03-.011-.044-.005-.013-.012-.025-.021-.034s-.02-.017-.032-.022c-.013-.006-.028-.008-.044-.008h-.287c-.016,0-.029.004-.038.013s-.013.021-.013.038v.522h-.127v-.522c0-.033.006-.06.018-.083.011-.023.026-.041.044-.055s.037-.024.058-.031c.021-.006.04-.009.058-.009h.287c.028,0,.054.003.077.011.023.007.043.017.06.029s.032.026.045.042c.012.016.022.033.03.05.008.018.014.035.017.053.004.018.005.035.005.05v.058Z" clip-rule="evenodd" stroke-linejoin="round" stroke-miterlimit="2"/></g><g transform="matrix(144 0 0 144 239.891 854.922)" clip-rule="evenodd"><rect width="0.127" height="0.7" rx="0" ry="0" transform="translate(.075-.7)" clip-rule="evenodd" stroke-linejoin="round" stroke-miterlimit="2"/></g><g transform="matrix(144 0 0 144 279.688 854.922)" clip-rule="evenodd"><path d="M0.773,-0.465c0,.029-.003.055-.01.078s-.017.043-.029.06c-.013.018-.027.032-.043.045-.016.012-.032.022-.05.03-.017.008-.035.014-.052.018-.018.003-.035.005-.05.005L0.804,0h-.197l-.264-.229h-.092v-.127h.288c.016-.001.03-.005.043-.01s.025-.013.034-.022c.01-.009.017-.02.023-.033.005-.013.007-.027.007-.044v-.08c0-.007,0-.013-.002-.016-.002-.004-.004-.007-.007-.009-.003-.001-.006-.002-.009-.003-.003,0-.006,0-.008,0h-.419v.573h-.127v-.636c0-.009.001-.017.005-.025.003-.008.007-.015.013-.021s.012-.01.02-.013c.008-.004.017-.005.026-.005h.482c.028,0,.052.005.071.015.02.01.036.023.048.039.012.015.021.032.026.05.006.018.008.034.008.05v.081Z" clip-rule="evenodd" stroke-linejoin="round" stroke-miterlimit="2"/></g><g transform="matrix(144 0 0 144 398.797 854.922)" clip-rule="evenodd"><path d="M0.761,0h-.127v-.172h-.446v.172h-.127v-.35c0-.051.008-.098.026-.141.017-.043.042-.08.073-.111s.068-.055.111-.072c.043-.018.089-.026.14-.026h.286c.009,0,.017.001.025.005.007.003.014.007.02.013s.011.013.014.021.005.016.005.025v.636Zm-.573-.299h.446v-.274h-.223c-.004,0-.012,0-.025.001-.013.002-.027.004-.043.009-.017.005-.034.012-.052.021-.019.009-.035.022-.051.039-.015.017-.028.037-.038.062s-.014.055-.014.091v.051Z" clip-rule="evenodd" stroke-linejoin="round" stroke-miterlimit="2"/></g><g transform="matrix(144 0 0 144 518.961 854.922)" clip-rule="evenodd"><path d="M0.707,-0.573h-.28v.573L0.3,0v-.573h-.28v-.127h.687v.127Z" clip-rule="evenodd" stroke-linejoin="round" stroke-miterlimit="2"/></g><g transform="matrix(144 0 0 144 623.516 854.922)" clip-rule="evenodd"><path d="M0.649,-0.286h-.4v-.128h.4v.128ZM0.707,0h-.458c-.018,0-.037-.003-.058-.009s-.04-.017-.058-.031-.032-.032-.044-.055-.018-.05-.018-.083v-.458c0-.009.001-.017.005-.025.003-.008.007-.015.013-.021s.013-.01.02-.013c.008-.004.017-.005.026-.005h.572v.127h-.509v.395c0,.016.004.029.013.038s.022.013.039.013h.457v.127Z" clip-rule="evenodd" stroke-linejoin="round" stroke-miterlimit="2"/></g></g></g></g></svg>
